PathFileType	4	(X/Y/Z)	C:/Users/opensim2020/Desktop/walking_exp_matlab/subject01_walking16_run.trc																																																																																																																																																																																											
DataRate	CameraRate	NumFrames	NumMarkers	Units	OrigDataRate	OrigDataStartFrame	OrigNumFrames																																																																																																																																																																																							
100	100	4	63	mm	100	381	89																																																																																																																																																																																							
Frame#	Time	LKNE			RELB			LTHI			RUPA			LTIB			RFRM			LTOE			LSHO			RWRA			RSHO			RWRB			STRN			RFIN			RBHD			CLAV			LHEE			LFHD			RASI			RFHD			LBHD			C7			LWRB			LWRA			LFRM			RTHI			RKNE			LELB			LFIN			LUPA			RTIB			RANK			RTOE			RHEE			T10			RBAK			LASI			LPSI			RPSI			LANK			*39			*40			*41			*42			*43			*44			*45			*46			*47			*48			*49			*50			*51			*52			*53			*54			*55			*56			*57			*58			*59			*60			*61			*62		
		X1	Y1	Z1	X2	Y2	Z2	X3	Y3	Z3	X4	Y4	Z4	X5	Y5	Z5	X6	Y6	Z6	X7	Y7	Z7	X8	Y8	Z8	X9	Y9	Z9	X10	Y10	Z10	X11	Y11	Z11	X12	Y12	Z12	X13	Y13	Z13	X14	Y14	Z14	X15	Y15	Z15	X16	Y16	Z16	X17	Y17	Z17	X18	Y18	Z18	X19	Y19	Z19	X20	Y20	Z20	X21	Y21	Z21	X22	Y22	Z22	X23	Y23	Z23	X24	Y24	Z24	X25	Y25	Z25	X26	Y26	Z26	X27	Y27	Z27	X28	Y28	Z28	X29	Y29	Z29	X30	Y30	Z30	X31	Y31	Z31	X32	Y32	Z32	X33	Y33	Z33	X34	Y34	Z34	X35	Y35	Z35	X36	Y36	Z36	X37	Y37	Z37	X38	Y38	Z38	X39	Y39	Z39	X40	Y40	Z40	X41	Y41	Z41	X42	Y42	Z42	X43	Y43	Z43	X44	Y44	Z44	X45	Y45	Z45	X46	Y46	Z46	X47	Y47	Z47	X48	Y48	Z48	X49	Y49	Z49	X50	Y50	Z50	X51	Y51	Z51	X52	Y52	Z52	X53	Y53	Z53	X54	Y54	Z54	X55	Y55	Z55	X56	Y56	Z56	X57	Y57	Z57	X58	Y58	Z58	X59	Y59	Z59	X60	Y60	Z60	X61	Y61	Z61	X62	Y62	Z62	X63	Y63	Z63
																																																																																																																																																																																														
34	0.33	-278.57559	425.49728	-555.3017	-448.56476	1104.82837	-135.65465	-309.89966	552.00452	-579.64691	-397.10693	1210.89124	-187.73732	-366.54239	260.22665	-554.23804	-408.79129	976.6994	-133.1736	-346.21909	30.16794	-497.72757	-254.88087	1299.50049	-621.84265	-323.66568	888.26959	-195.32765	-261.73251	1331.43921	-311.2034	-354.65051	865.06586	-151.46771	-190.68578	1123.28198	-449.23251	-292.97192	821.93311	-164.50677	-329.38037	1541.65161	-394.65247	-206.15802	1285.09412	-458.41379	-538.50165	60.22683	-444.75848	-241.44221	1601.92078	-526.11865	-318.91702	865.06512	-324.173	-227.55684	1614.55579	-414.53967	-342.22119	1530.94946	-513.40814	-343.54068	1371.02051	-470.46274	-74.68606	897.42542	-703.86908	-69.3891	944.22083	-665.74017	-179.60178	946.93597	-746.30475	-261.47256	557.71594	-258.21231	-221.16373	410.90176	-295.28867	-293.2713	991.39551	-770.07318	1.41982	910.69128	-677.12042	-293.71469	1136.01599	-722.92957	-392.22672	395.36453	-285.93628	-596.31287	372.49167	-323.78229	-625.91333	231.03569	-316.64987	-641.97833	410.1438	-375.91968	-445.33115	1102.20313	-433.2485	-433.09158	1207.24353	-372.77435	-328.99689	881.03436	-535.57574	-505.31262	905.50787	-465.7373	-493.42349	891.30902	-324.83212	-482.50363	75.97324	-496.72546	1973.0542	1024.00671	-3102.10645	2012.47644	1021.97583	-3140.80957	NaN	NaN	NaN	NaN	NaN	NaN	NaN	NaN	NaN	NaN	NaN	NaN	NaN	NaN	NaN	NaN	NaN	NaN	NaN	NaN	NaN	NaN	NaN	NaN	-250.6819	1642.21362	-437.84378	NaN	NaN	NaN	NaN	NaN	NaN	NaN	NaN	NaN	NaN	NaN	NaN	NaN	NaN	NaN	NaN	NaN	NaN	NaN	NaN	NaN	NaN	NaN	NaN	NaN	NaN	NaN	NaN	NaN	NaN	NaN	NaN	NaN	NaN	NaN	NaN	NaN	NaN	NaN
35	0.34	-254.82993	416.89069	-554.61011	-414.03259	1115.08691	-135.30815	-276.18924	548.17865	-579.48578	-357.16254	1215.30554	-190.29497	-353.8696	258.55798	-553.73218	-380.57318	984.77631	-123.99827	-347.2356	30.01617	-497.59961	-203.28238	1299.37476	-621.2063	-299.07678	888.91327	-179.56911	-217.82684	1330.41064	-312.43237	-330.81418	870.2124	-134.23912	-145.39973	1121.65186	-448.10577	-270.99924	823.49042	-144.83156	-282.4632	1540.96155	-396.62216	-159.31998	1283.90698	-457.66367	-537.71332	67.12135	-445.06586	-193.4054	1600.76941	-527.73224	-274.25995	866.62946	-324.10608	-180.21593	1613.35388	-415.77881	-294.40359	1530.17664	-515.49329	-297.51556	1369.82507	-473.0097	-1.23863	916.20209	-685.56476	-2.33443	964.10931	-648.74561	-108.6218	953.62103	-734.04474	-191.33041	571.60919	-261.37964	-138.31551	429.61655	-301.11179	-225.0323	987.75189	-764.41992	72.03652	937.10284	-654.90582	-234.29668	1133.42615	-720.99921	-307.26453	399.53571	-288.75742	-510.21201	354.01843	-322.96756	-520.64661	210.92632	-311.77267	-561.76746	385.04272	-374.78674	-399.51013	1101.87598	-437.31891	-388.09366	1207.02539	-376.38998	-283.50186	878.34546	-538.88452	-459.7157	905.76318	-467.83221	-449.60626	893.4892	-328.85101	-480.77673	80.4142	-497.06	1973.23145	1023.50372	-3101.97754	2012.58582	1021.93976	-3140.7002	NaN	NaN	NaN	NaN	NaN	NaN	NaN	NaN	NaN	NaN	NaN	NaN	NaN	NaN	NaN	NaN	NaN	NaN	NaN	NaN	NaN	NaN	NaN	NaN	-203.0506	1640.74756	-439.42871	NaN	NaN	NaN	NaN	NaN	NaN	NaN	NaN	NaN	NaN	NaN	NaN	NaN	NaN	NaN	NaN	NaN	NaN	NaN	NaN	NaN	NaN	NaN	NaN	NaN	NaN	NaN	NaN	NaN	NaN	NaN	NaN	NaN	NaN	NaN	NaN	NaN	NaN	NaN
36	0.35	-232.53699	409.1799	-553.66833	-380.4133	1126.65405	-134.64278	-242.68465	543.73138	-579.29187	-317.69012	1221.69604	-192.71429	-342.64917	257.4165	-552.74884	-351.65671	995.32257	-116.32668	-348.54913	29.92126	-497.44858	-152.14482	1301.29529	-620.24921	-272.55389	894.14941	-166.30412	-174.4445	1330.35522	-312.77649	-305.01358	879.45465	-120.10081	-98.91749	1121.61572	-446.37076	-247.11777	829.07593	-128.12488	-235.25261	1541.57532	-398.09448	-112.54695	1284.00781	-456.37991	-536.28625	76.30209	-444.84488	-145.01175	1600.52893	-528.78949	-228.41277	869.54047	-324.06723	-132.52304	1613.47986	-416.70154	-246.37897	1530.42749	-516.99347	-251.5441	1369.39795	-474.82388	68.18306	938.39423	-666.50531	60.90989	987.25818	-631.87982	-40.33646	963.28259	-721.11633	-124.46815	588.37445	-266.14203	-58.83489	452.2507	-306.9248	-157.49396	986.84918	-757.6004	137.50681	967.05853	-633.36035	-175.37755	1133.31604	-718.8219	-224.35294	406.00925	-291.81052	-422.4668	333.71454	-322.40753	-413.0976	191.14577	-310.05099	-478.93643	357.4017	-373.46378	-353.06082	1101.71338	-441.36362	-342.58325	1206.92432	-380.64456	-238.1871	875.77026	-541.50079	-413.4772	905.5531	-471.26538	-404.36017	895.41748	-332.89948	-479.04587	85.98171	-496.99371	1973.26172	1023.34747	-3101.87109	2012.59216	1022.11462	-3140.70728	NaN	NaN	NaN	NaN	NaN	NaN	NaN	NaN	NaN	NaN	NaN	NaN	NaN	NaN	NaN	NaN	NaN	NaN	NaN	NaN	NaN	NaN	NaN	NaN	-153.98807	1640.96545	-440.35385	NaN	NaN	NaN	NaN	NaN	NaN	NaN	NaN	NaN	NaN	NaN	NaN	NaN	NaN	NaN	NaN	NaN	NaN	NaN	NaN	NaN	NaN	NaN	NaN	NaN	NaN	NaN	NaN	NaN	NaN	NaN	NaN	NaN	NaN	NaN	NaN	NaN	NaN	NaN
37	0.36	-212.36476	402.89215	-552.6474	-346.85461	1139.03052	-134.18253	-210.96245	539.93768	-578.94513	-278.99155	1229.75903	-194.79201	-333.08798	257.78055	-551.93811	-321.85211	1007.76581	-110.33252	-349.21381	29.85581	-497.28253	-101.41936	1304.9646	-619.21338	-243.74591	903.22656	-154.51175	-131.32141	1331.49365	-312.53842	-277.92566	891.08136	-109.31534	-52.06541	1123.32483	-444.38519	-221.28088	837.90234	-113.46123	-187.85019	1543.50061	-399.0314	-65.83572	1285.77185	-454.50665	-533.08807	87.37222	-445.18808	-96.42002	1601.46826	-529.41364	-182.67123	873.61737	-324.88712	-84.56252	1614.75806	-417.2673	-198.29485	1531.92163	-518.03363	-205.0956	1369.90674	-476.3046	132.97044	962.91736	-647.49762	119.85751	1012.41229	-616.07813	25.36868	975.41205	-707.77649	-60.66087	607.8595	-271.35779	16.62177	477.32974	-312.11618	-91.57389	988.59198	-750.49225	197.94553	999.10052	-613.01306	-116.92933	1135.20593	-716.57513	-143.46982	413.49289	-294.7594	-331.97244	312.90881	-322.2243	-302.53638	173.37486	-310.13721	-392.19415	328.8512	-372.04361	-305.68515	1102.11182	-445.36383	-296.78824	1207.22339	-385.26157	-189.23035	874.15417	-544.15302	-366.50787	905.37891	-475.53244	-358.56955	897.23608	-336.95569	-476.18719	93.27776	-497.29272	1973.14343	1023.51276	-3101.90527	2012.60693	1022.06433	-3140.63696	NaN	NaN	NaN	NaN	NaN	NaN	NaN	NaN	NaN	NaN	NaN	NaN	NaN	NaN	NaN	NaN	NaN	NaN	NaN	NaN	NaN	NaN	NaN	NaN	-105.05882	1642.56909	-441.3942	NaN	NaN	NaN	NaN	NaN	NaN	NaN	NaN	NaN	NaN	NaN	NaN	NaN	NaN	NaN	NaN	NaN	NaN	NaN	NaN	NaN	NaN	NaN	NaN	NaN	NaN	NaN	NaN	NaN	NaN	NaN	NaN	NaN	NaN	NaN	NaN	NaN	NaN	NaN
